<svg id="Capa_1" enable-background="new 0 0 512 512" height="512" viewBox="0 0 512 512" width="512" xmlns="http://www.w3.org/2000/svg"><g><path d="m88.606 150.996v57.162h15l6.394-28.909-6.394-28.253z" fill="#00cc76"/><path d="m103.606 150.996h15v57.163h-15z" fill="#009986"/><path d="m0 45.751h14.801c49.046 0 88.805 39.76 88.805 88.805l5.394 16.693-5.394 12.91h-14.801c-49.045-.001-88.805-39.76-88.805-88.806z" fill="#a5e887"/><path d="m192.412 45.751c-49.046 0-88.805 39.759-88.805 88.805v29.602h14.801c49.046 0 88.805-39.76 88.805-88.805v-29.602z" fill="#00cc76"/><path d="m393.394 150.996v57.162h15l6.393-28.909-6.393-28.253z" fill="#00cc76"/><path d="m408.394 150.996h15v57.163h-15z" fill="#009986"/><path d="m304.787 45.751h14.801c49.046 0 88.805 39.76 88.805 88.805l5.394 16.692-5.394 12.91h-14.801c-49.046 0-88.805-39.759-88.805-88.805z" fill="#a5e887"/><path d="m497.199 45.751c-49.046 0-88.805 39.759-88.805 88.805v29.602h14.801c49.046 0 88.805-39.76 88.805-88.805v-29.602z" fill="#00cc76"/><path d="m0 195.461h512v30h-512z" fill="#d87f4a"/><path d="m88.606 391.784v57.163h15l6.394-28.91-6.394-28.253z" fill="#00cc76"/><path d="m103.606 391.784h15v57.163h-15z" fill="#009986"/><path d="m0 286.539h14.801c49.046 0 88.805 39.76 88.805 88.805l5.394 16.693-5.394 12.91h-14.801c-49.045-.001-88.805-39.76-88.805-88.806z" fill="#a5e887"/><path d="m192.412 286.539c-49.046 0-88.805 39.759-88.805 88.805v29.602h14.801c49.046 0 88.805-39.76 88.805-88.805v-29.602z" fill="#00cc76"/><path d="m393.394 391.784v57.163h15l6.393-28.91-6.393-28.253z" fill="#00cc76"/><path d="m408.394 391.784h15v57.163h-15z" fill="#009986"/><path d="m304.787 286.539h14.801c49.046 0 88.805 39.76 88.805 88.805l5.394 16.692-5.394 12.91h-14.801c-49.046 0-88.805-39.759-88.805-88.805z" fill="#a5e887"/><path d="m497.199 286.539c-49.046 0-88.805 39.759-88.805 88.805v29.602h14.801c49.046 0 88.805-39.76 88.805-88.805v-29.602z" fill="#00cc76"/><path d="m0 436.249h512v30h-512z" fill="#d87f4a"/></g></svg>